<svg width="32" height="32" xmlns="http://www.w3.org/2000/svg">

 <title/>
 <g>
  <title>background</title>
  <rect fill="none" id="canvas_background" height="402" width="582" y="-1" x="-1"/>
 </g>
 <g>
  <title>Layer 1</title>
  <path fill="#ffffff" id="svg_1" d="m16,27a10,10 0 0 1 -10,-10a1,1 0 0 1 2,0a8,8 0 0 0 16,0a1,1 0 0 1 2,0a10,10 0 0 1 -10,10z" class="cls-1"/>
  <path fill="#ffffff" id="svg_2" d="m15.940299,31a1,1 0 0 1 -1,-1l0,-4a1,1 0 0 1 2,0l0,4a1,1 0 0 1 -1,1z" class="cls-1"/>
  <path fill="#ffffff" id="svg_3" d="m16,23a6,6 0 0 1 -6,-6l0,-10a6,6 0 0 1 12,0l0,10a6,6 0 0 1 -6,6zm0,-20a4,4 0 0 0 -4,4l0,10a4,4 0 0 0 8,0l0,-10a4,4 0 0 0 -4,-4z" class="cls-1"/>
 </g>
</svg>